<?xml version="1.0" encoding="UTF-8"?>
<svg width="50px" height="50px" viewBox="0 0 50 50" version="1.1" xmlns="http://www.w3.org/2000/svg" xmlns:xlink="http://www.w3.org/1999/xlink">
    <!-- Generator: Sketch 43.2 (39069) - http://www.bohemiancoding.com/sketch -->
    <title>Slice</title>
    <desc>Created with Sketch.</desc>
    <defs></defs>
    <g id="Page-1" stroke="none" stroke-width="1" fill="none" fill-rule="evenodd">
        <path d="M25,0 C11.1997674,0 0,11.2619144 0,25.1387237 C0,39.0155331 11.1997674,50.2774475 25,50.2774475 C38.8002326,50.2774475 50,39.0155331 50,25.1387237 C50,11.2619144 38.8002326,0 25,0 Z M25,1.16924296 C38.1718134,1.16924296 48.8372093,11.8938201 48.8372093,25.1387237 C48.8372093,38.3836157 38.1718134,49.1082045 25,49.1082045 C11.8281866,49.1082045 1.1627907,38.3836157 1.1627907,25.1387237 C1.1627907,11.8938201 11.8281866,1.16924296 25,1.16924296 Z M24.9273256,11.6741602 C24.6278397,11.7118948 24.4068617,11.9737783 24.4186047,12.2770511 L24.4186047,24.5541023 L12.2093023,24.5541023 C12.1730453,24.5506695 12.1365477,24.5506695 12.1002907,24.5541023 C11.7791949,24.584372 11.5432985,24.8706545 11.5734012,25.193532 C11.6035039,25.5164095 11.8882065,25.753615 12.2093023,25.7233452 L24.4186047,25.7233452 L24.4186047,38.0003964 C24.4156394,38.2112319 24.5257996,38.4073405 24.7069028,38.5136284 C24.888006,38.6199163 25.111994,38.6199163 25.2930972,38.5136284 C25.4742004,38.4073405 25.5843606,38.2112319 25.5813953,38.0003964 L25.5813953,25.7233452 L37.7906977,25.7233452 C38.0003697,25.726327 38.1953961,25.6155555 38.3010975,25.4334473 C38.4067989,25.2513391 38.4067989,25.0261083 38.3010975,24.8440002 C38.1953961,24.661892 38.0003697,24.5511205 37.7906977,24.5541023 L25.5813953,24.5541023 L25.5813953,12.2770511 C25.5880733,12.1053227 25.5192763,11.9393369 25.3932883,11.823207 C25.2673003,11.7070772 25.0968823,11.6525659 24.9273256,11.6741602 L24.9273256,11.6741602 Z" id="Shape" fill="#FFFFFF" fill-rule="nonzero"></path>
    </g>
</svg>