<svg xmlns="http://www.w3.org/2000/svg" xmlns:xlink="http://www.w3.org/1999/xlink" version="1.1" x="0px" y="0px" viewBox="0 0 100 125" style="enable-background:new 0 0 100 100;" xml:space="preserve"><path d="M39.9,11c-11-2.2-20.4-0.8-25,3.9c-9.5,9.5-5,38.5,12.8,56.3c8.7,8.7,19.7,15.1,30.2,17.7c3.4,0.8,6.6,1.2,9.6,1.2  c6.8,0,12.5-2.1,16.5-6.1c11.8-11.8,5.9-37.6-12.8-56.3C62.9,19.4,51.5,13.3,39.9,11z M82.5,82.5c-10.8,10.8-35.8,4.9-53.4-12.8  c-8-8-13.8-19-16.1-30.2c-2.1-10.2-0.8-19.1,3.3-23.2c2.8-2.8,7.8-4.3,14-4.3c2.9,0,6,0.3,9.2,1c11.2,2.3,22.3,8.1,30.2,16.1  C87.4,46.7,93.3,71.7,82.5,82.5z"/><path d="M61.7,60.3l4.2-4.2c0.4-0.4,0.4-1,0-1.4s-1-0.4-1.4,0l-4.2,4.2l-4-4l4.2-4.2c0.4-0.4,0.4-1,0-1.4s-1-0.4-1.4,0l-4.2,4.2  l-4-4l4.2-4.2c0.4-0.4,0.4-1,0-1.4s-1-0.4-1.4,0L49.4,48l-4-4l4.2-4.2c0.4-0.4,0.4-1,0-1.4s-1-0.4-1.4,0l-4.2,4.2l-4-4l4.2-4.2  c0.4-0.4,0.4-1,0-1.4s-1-0.4-1.4,0l-4.2,4.2L34,32.6c-0.4-0.4-1-0.4-1.4,0s-0.4,1,0,1.4l4.5,4.5l-4.2,4.2c-0.4,0.4-0.4,1,0,1.4  c0.2,0.2,0.5,0.3,0.7,0.3s0.5-0.1,0.7-0.3l4.2-4.2l4,4l-4.2,4.2c-0.4,0.4-0.4,1,0,1.4c0.2,0.2,0.5,0.3,0.7,0.3s0.5-0.1,0.7-0.3  l4.2-4.2l4,4l-4.2,4.2c-0.4,0.4-0.4,1,0,1.4c0.2,0.2,0.5,0.3,0.7,0.3s0.5-0.1,0.7-0.3l4.2-4.2l4,4L49.3,59c-0.4,0.4-0.4,1,0,1.4  c0.2,0.2,0.5,0.3,0.7,0.3s0.5-0.1,0.7-0.3l4.2-4.2l4,4l-4.2,4.2c-0.4,0.4-0.4,1,0,1.4c0.2,0.2,0.5,0.3,0.7,0.3s0.5-0.1,0.7-0.3  l4.2-4.2l4.5,4.5c0.2,0.2,0.5,0.3,0.7,0.3s0.5-0.1,0.7-0.3c0.4-0.4,0.4-1,0-1.4L61.7,60.3z"/><text x="0" y="115" fill="#000000" font-size="5px" font-weight="bold" font-family="'Helvetica Neue', Helvetica, Arial-Unicode, Arial, Sans-serif">Created by Made</text><text x="0" y="120" fill="#000000" font-size="5px" font-weight="bold" font-family="'Helvetica Neue', Helvetica, Arial-Unicode, Arial, Sans-serif">from the Noun Project</text></svg>